<svg width="30" height="30" viewBox="0 0 30 30" fill="none" xmlns="http://www.w3.org/2000/svg">
<path d="M30.0067 15.0049C30.0067 22.5828 24.3912 28.8476 17.0962 29.8643C16.414 29.9589 15.7162 30.0083 15.0078 30.0083C14.1901 30.0083 13.3871 29.9431 12.6052 29.817C5.46359 28.6668 0.0088501 22.4724 0.0088501 15.0049C0.0088501 6.71844 6.7248 0.000518799 15.0088 0.000518799C23.2929 0.000518799 30.0088 6.71844 30.0088 15.0049H30.0067Z" fill="#414141"/>
<path d="M17.0961 12.0486V15.3172H21.1383L20.4983 19.7201H17.0961V29.8643C16.414 29.9589 15.7162 30.0083 15.0078 30.0083C14.1901 30.0083 13.3871 29.9431 12.6052 29.817V19.7201H8.87726V15.3172H12.6052V11.318C12.6052 8.83687 14.6158 6.82465 17.0972 6.82465V6.82675C17.1046 6.82675 17.1109 6.82465 17.1182 6.82465H21.1394V10.6325H18.5119C17.731 10.6325 17.0972 11.2665 17.0972 12.0476L17.0961 12.0486Z" fill="white"/>
</svg>
