<svg width="30" height="30" viewBox="0 0 30 30" fill="none" xmlns="http://www.w3.org/2000/svg">
<path d="M15.043 0H14.9747C6.70929 0 0.0088501 6.70241 0.0088501 14.9703V15.0386C0.0088501 23.3064 6.70929 30.0088 14.9747 30.0088H15.043C23.3084 30.0088 30.0089 23.3064 30.0089 15.0386V14.9703C30.0089 6.70241 23.3084 0 15.043 0Z" fill="#414141"/>
<path d="M19.6508 6.10522H10.3679C7.8034 6.10522 5.71707 8.19216 5.71707 10.7575V19.2524C5.71707 21.8177 7.8034 23.9047 10.3679 23.9047H19.6508C22.2153 23.9047 24.3017 21.8177 24.3017 19.2524V10.7575C24.3017 8.19216 22.2153 6.10522 19.6508 6.10522ZM7.35776 10.7575C7.35776 9.09738 8.70835 7.74639 10.3679 7.74639H19.6508C21.3104 7.74639 22.661 9.09738 22.661 10.7575V19.2524C22.661 20.9125 21.3104 22.2635 19.6508 22.2635H10.3679C8.70835 22.2635 7.35776 20.9125 7.35776 19.2524V10.7575Z" fill="white"/>
<path d="M15.0096 19.3313C17.3944 19.3313 19.3357 17.3905 19.3357 15.0039C19.3357 12.6173 17.3955 10.6765 15.0096 10.6765C12.6237 10.6765 10.6835 12.6173 10.6835 15.0039C10.6835 17.3905 12.6237 19.3313 15.0096 19.3313ZM15.0096 12.3187C16.4905 12.3187 17.695 13.5236 17.695 15.0049C17.695 16.4863 16.4905 17.6912 15.0096 17.6912C13.5287 17.6912 12.3242 16.4863 12.3242 15.0049C12.3242 13.5236 13.5287 12.3187 15.0096 12.3187Z" fill="white"/>
<path d="M19.7362 11.3757C20.3784 11.3757 20.9018 10.8531 20.9018 10.2097C20.9018 9.56629 20.3794 9.04376 19.7362 9.04376C19.093 9.04376 18.5706 9.56629 18.5706 10.2097C18.5706 10.8531 19.093 11.3757 19.7362 11.3757Z" fill="white"/>
</svg>
