<svg width="30" height="30" viewBox="0 0 30 30" fill="none" xmlns="http://www.w3.org/2000/svg">
<path d="M15.0386 0.148315H14.9703C6.7073 0.148315 0.0088501 6.78448 0.0088501 14.9706V15.0383C0.0088501 23.2244 6.7073 29.8605 14.9703 29.8605H15.0386C23.3016 29.8605 30 23.2244 30 15.0383V14.9706C30 6.78448 23.3016 0.148315 15.0386 0.148315Z" fill="#414141"/>
<path d="M5.68889 14.498C5.73092 14.4772 5.77297 14.4574 5.81395 14.4387C6.52635 14.1118 7.24821 13.8058 7.96901 13.4997C8.00789 13.4997 8.07302 13.455 8.1098 13.4404C8.16548 13.4165 8.22118 13.3936 8.27687 13.3696C8.38405 13.3238 8.49123 13.279 8.59735 13.2332C8.8117 13.1427 9.02499 13.0521 9.23934 12.9616L10.5223 12.4171C11.3776 12.0549 12.2339 11.6916 13.0892 11.3293C13.9445 10.9671 14.8009 10.6038 15.6562 10.2415C16.5115 9.87926 17.3678 9.51597 18.2231 9.15371C19.0784 8.79146 19.9348 8.42816 20.7901 8.0659C20.9803 7.98471 21.1862 7.86395 21.3901 7.82856C21.5613 7.79837 21.7284 7.74008 21.9007 7.70781C22.2275 7.64639 22.5879 7.62141 22.901 7.7557C23.0092 7.80254 23.1091 7.86812 23.1921 7.95036C23.5892 8.33968 23.5336 8.97882 23.4495 9.52637C22.8642 13.3425 22.279 17.1598 21.6927 20.9759C21.6128 21.4995 21.5035 22.0741 21.0864 22.4052C20.7333 22.6852 20.2311 22.7164 19.795 22.5978C19.359 22.478 18.9744 22.2272 18.5972 21.9805C17.0327 20.9541 15.4671 19.9277 13.9025 18.9013C13.5306 18.6577 13.1166 18.3392 13.1208 17.8968C13.1229 17.6303 13.2836 17.3929 13.4475 17.1816C14.8072 15.4245 16.7689 14.217 18.2284 12.541C18.4343 12.3047 18.5962 11.8779 18.3135 11.7415C18.1454 11.6603 17.952 11.7707 17.7986 11.8758C15.8695 13.2031 13.9414 14.5313 12.0122 15.8586C11.3829 16.2916 10.723 16.7371 9.96436 16.8433C9.28558 16.9391 8.60261 16.7517 7.9459 16.5602C7.39531 16.3999 6.84576 16.2354 6.29833 16.0657C6.00727 15.9762 5.70676 15.8794 5.4819 15.6764C5.25705 15.4734 5.12782 15.132 5.26337 14.8613C5.34848 14.6916 5.51345 14.5844 5.68682 14.497L5.68889 14.498Z" fill="#FEFFFC"/>
</svg>
