<svg width="30" height="30" viewBox="0 0 30 30" fill="none" xmlns="http://www.w3.org/2000/svg">
<path d="M30.0089 15.0044C30.0089 6.71771 23.2931 0 15.0089 0C6.72459 0 0.0088501 6.71771 0.0088501 15.0044C0.0088501 23.2911 6.72459 30.0088 15.0089 30.0088C23.2931 30.0088 30.0089 23.2911 30.0089 15.0044Z" fill="#414141"/>
<path d="M24.4541 11.8952C24.3361 10.7554 24.0821 9.49547 23.1471 8.83334C22.423 8.31987 21.4712 8.30089 20.5826 8.30195C18.7043 8.30195 16.825 8.30511 14.9467 8.30617C13.1401 8.30828 11.3335 8.30933 9.52684 8.31144C8.77215 8.31144 8.03853 8.25345 7.3376 8.5803C6.73574 8.86075 6.26459 9.39426 5.98105 9.98785C5.5879 10.8134 5.50569 11.7486 5.45825 12.6617C5.37077 14.3244 5.38026 15.9913 5.48461 17.653C5.56155 18.8655 5.75654 20.2055 6.69358 20.9784C7.52417 21.6626 8.69625 21.6964 9.77348 21.6974C13.1928 21.7006 16.6131 21.7038 20.0335 21.7059C20.472 21.7069 20.9294 21.6985 21.3763 21.65C22.2554 21.5551 23.0933 21.3031 23.6583 20.6515C24.2285 19.9947 24.3751 19.0805 24.4615 18.2149C24.6723 16.1147 24.6702 13.9944 24.4541 11.8952ZM12.9693 17.9482V12.0596L18.0667 15.0034L12.9693 17.9482Z" fill="white"/>
</svg>
